<?xml version="1.0" encoding="UTF-8"?>
<svg width="700pt" height="700pt" version="1.1" viewBox="0 0 700 700" xmlns="http://www.w3.org/2000/svg" xmlns:xlink="http://www.w3.org/1999/xlink">
 <defs>
  <symbol id="f" overflow="visible">
   <path d="m39.078-2.3281c-2.0117 1.043-4.1094 1.8281-6.2969 2.3594s-4.4648 0.79688-6.8281 0.79688c-7.0859 0-12.699-1.9766-16.844-5.9375-4.1367-3.957-6.2031-9.3281-6.2031-16.109 0-6.7891 2.0664-12.164 6.2031-16.125 4.1445-3.9688 9.7578-5.9531 16.844-5.9531 2.3633 0 4.6406 0.26562 6.8281 0.79688s4.2852 1.3242 6.2969 2.375v8.7969c-2.0312-1.3828-4.0391-2.3984-6.0156-3.0469-1.9688-0.64453-4.0469-0.96875-6.2344-0.96875-3.9062 0-6.9844 1.2578-9.2344 3.7656-2.2422 2.5-3.3594 5.9531-3.3594 10.359 0 4.3867 1.1172 7.8359 3.3594 10.344 2.25 2.5 5.3281 3.75 9.2344 3.75 2.1875 0 4.2656-0.32031 6.2344-0.96875 1.9766-0.64453 3.9844-1.6602 6.0156-3.0469z"/>
  </symbol>
  <symbol id="e" overflow="visible">
   <path d="m16.031-40.953v9.0625h10.516v7.2812h-10.516v13.531c0 1.4805 0.28906 2.4805 0.875 3 0.59375 0.52344 1.7656 0.78125 3.5156 0.78125h5.2344v7.2969h-8.7344c-4.0312 0-6.8867-0.83594-8.5625-2.5156-1.6797-1.6875-2.5156-4.5391-2.5156-8.5625v-13.531h-5.0781v-7.2812h5.0781v-9.0625z"/>
  </symbol>
  <symbol id="d" overflow="visible">
   <path d="m26.594-27.234v-17.078h10.266v44.312h-10.266v-4.6094c-1.3984 1.875-2.9453 3.25-4.6406 4.125-1.6875 0.875-3.6406 1.3125-5.8594 1.3125-3.9297 0-7.1562-1.5625-9.6875-4.6875-2.5234-3.125-3.7812-7.1445-3.7812-12.062 0-4.9141 1.2578-8.9375 3.7812-12.062 2.5312-3.125 5.7578-4.6875 9.6875-4.6875 2.1953 0 4.1445 0.44531 5.8438 1.3281 1.707 0.88672 3.2578 2.2578 4.6562 4.1094zm-6.7188 20.656c2.1875 0 3.8516-0.79688 5-2.3906 1.1445-1.5938 1.7188-3.9102 1.7188-6.9531 0-3.0391-0.57422-5.3594-1.7188-6.9531-1.1484-1.5938-2.8125-2.3906-5-2.3906-2.168 0-3.8242 0.79688-4.9688 2.3906-1.1484 1.5938-1.7188 3.9141-1.7188 6.9531 0 3.043 0.57031 5.3594 1.7188 6.9531 1.1445 1.5938 2.8008 2.3906 4.9688 2.3906z"/>
  </symbol>
  <symbol id="c" overflow="visible">
   <path d="m21.875-6.5781c2.1758 0 3.8359-0.79688 4.9844-2.3906 1.1562-1.5938 1.7344-3.9102 1.7344-6.9531 0-3.0391-0.57812-5.3594-1.7344-6.9531-1.1484-1.5938-2.8086-2.3906-4.9844-2.3906-2.1875 0-3.8672 0.80469-5.0312 2.4062-1.168 1.6055-1.75 3.918-1.75 6.9375 0 3.0234 0.58203 5.3359 1.75 6.9375 1.1641 1.6055 2.8438 2.4062 5.0312 2.4062zm-6.7812-20.656c1.4062-1.8516 2.9609-3.2227 4.6719-4.1094 1.707-0.88281 3.6719-1.3281 5.8906-1.3281 3.9375 0 7.1641 1.5625 9.6875 4.6875 2.5195 3.125 3.7812 7.1484 3.7812 12.062 0 4.918-1.2617 8.9375-3.7812 12.062-2.5234 3.125-5.75 4.6875-9.6875 4.6875-2.2188 0-4.1836-0.44531-5.8906-1.3281-1.7109-0.88281-3.2656-2.2539-4.6719-4.1094v4.6094h-10.188v-44.312h10.188z"/>
  </symbol>
  <symbol id="b" overflow="visible">
   <path d="m5.3594-42.516h29.594v8.2812h-18.641v7.9219h17.516v8.2812h-17.516v18.031h-10.953z"/>
  </symbol>
  <symbol id="a" overflow="visible">
   <path d="m1.7344-42.516h10.516l7.3438 30.891 7.2969-30.891h10.562l7.2969 30.891 7.3438-30.891h10.422l-10.031 42.516h-12.641l-7.7188-32.328-7.625 32.328h-12.656z"/>
  </symbol>
 </defs>
 <g>
  <path d="m269.84 23.332c-9.9961 0-18.047 9.2305-18.047 20.691v62.434h178.37c5.8828 0 11.312 1.3281 16.203 3.5547l10.004-25.656h29.281l72.805 186.92h-26.867l-17.41-47.941h-42.633v126.03l70.523 80.848v-101.72h46.551c9.9961 0 18.047-9.2305 18.047-20.691v-263.78c0-11.461-8.0508-20.691-18.047-20.691zm201.11 85.949-6.4023 17c4.4531 7.1836 6.9961 15.617 6.9961 24.199v51.816h34.59z"/>
  <path d="m111.38 129.79c-9.9961 0-18.047 9.2305-18.047 20.691v263.78c0 11.461 8.0508 20.691 18.047 20.691h46.555v101.72l88.73-101.72h183.5c9.9961 0 18.047-9.2305 18.047-20.691v-263.78c0-11.461-8.0508-20.691-18.047-20.691zm132.16 59.906h4.3984c2.9297 0 6.7305 0.26562 11.418 0.82031 5.2695 0.55469 9.0742 0.84375 11.414 0.84375 0.58594 2.2188 0.003907 5.2773-1.7539 9.1602-1.1719 1.6641-1.7539 3.0391-1.7539 4.1484-1.1719 2.7734-2.0586 7.207-2.6445 13.309-0.58594 1.6641-0.86719 2.793-0.86719 3.3477 2.9297 0 6.1484-0.57812 9.6602-1.6875 14.641-1.6641 27.801-4.1445 39.512-7.4727v19.961c-15.812 3.8828-31.91 6.9414-48.309 9.1602h-4.3984c-0.58594 5.5469-1.168 12.195-1.7539 19.961 1.1719 0 2.9453-0.26562 5.2852-0.82031 9.9531-1.6641 17.258-2.7734 21.941-3.3281 0-0.55469 0.30469-1.6641 0.88672-3.3281v-4.9883c-0.58594-2.2188-0.003907-3.6133 1.7539-4.1719l21.078 3.3281 0.88672 2.5078c-0.58594 1.1094-1.4727 3.3242-2.6445 6.6523 14.055 1.1094 25.465 5.2734 34.25 12.488 13.469 12.758 20.211 26.605 20.211 41.586v5.832c-0.58594 19.973-11.996 36.609-34.246 49.926-8.7852 4.9922-15.832 7.4961-21.102 7.4961h-0.86719l-4.3984-4.1719c-6.4414-4.9922-11.41-8.582-14.926-10.801 14.641-2.2188 27.215-6.6719 37.758-13.328 10.539-8.875 16.117-19.137 16.703-30.785v-3.3281c-0.58594-12.758-6.7461-23.305-18.457-31.629-2.3438-1.6641-5.8438-3.0391-10.527-4.1484h-0.88672c-2.3438-1.1094-5.5625-1.9531-9.6602-2.5078-7.6133 20.527-20.191 41.043-37.758 61.57 1.7578 5.5469 3.7891 10.266 6.1289 14.152-2.9297 0.55469-7.0117 2.2148-12.281 4.9883-2.9297 0.55469-4.9805 1.1094-6.1523 1.6641-1.7578-1.1094-3.2266-3.0352-4.3984-5.8125-4.0977 2.7734-7.3203 4.6992-9.6602 5.8125-12.297 8.3203-23.125 12.488-32.492 12.488h-3.5078c-13.469-1.1094-20.797-10.527-21.965-28.277v-3.3281c0.58594-17.195 9.0781-33.57 25.477-49.105 7.6133-7.2109 18.441-13.859 32.492-19.961 0.58594-3.8828 0.88672-9.7109 0.88672-17.477 0.58594-4.9922 0.86719-7.207 0.86719-6.6523h-13.172c-6.4414 0.55469-11.41 0.82031-14.926 0.82031h-13.172c-0.58594 0-1.4727-0.26562-2.6445-0.82031l-3.5078-6.6758c-0.58594-1.6641-1.168-3.0391-1.7539-4.1484v-0.84375c-1.7578-3.3281-2.0586-5.8086-0.88672-7.4727h9.6602c4.0977 0.55469 7.0391 0.82031 8.7969 0.82031h13.172c8.7852 0 15.809-0.55469 21.078-1.6641 0-1.1094 0.28125-2.7695 0.86719-4.9922 1.1719-8.3203 1.7773-14.969 1.7773-19.961 0-3.3281-0.30469-6.3867-0.88672-9.1602zm38.645 83.215c-9.9531 1.6641-16.977 3.3242-21.078 4.9883-0.58594 0-1.4727 0.26562-2.6445 0.82031v19.141c0 9.9844 0.30469 14.992 0.88672 14.992 11.125-14.422 18.734-27.742 22.832-39.945zm-44.797 14.129c-14.055 7.7656-24.883 18.602-32.492 32.469-3.5117 4.4375-5.2656 9.9766-5.2656 16.633 0 7.7656 3.8047 11.645 11.418 11.645 7.0273 0 14.332-3.0352 21.941-9.1367 0.58594-0.55469 1.1914-1.1094 1.7773-1.6641 2.9297-3.3281 4.957-5.2773 6.1289-5.832l-0.86719-2.5078c-1.7578-13.312-2.6445-27.184-2.6445-41.609z"/>
  <use x="70" y="735" xlink:href="#f"/>
  <use x="220.503906" y="735" xlink:href="#e"/>
  <use x="287.953125" y="735" xlink:href="#d"/>
  <use x="350.015625" y="735" xlink:href="#c"/>
  <use x="450.105469" y="735" xlink:href="#b"/>
  <use x="616.617188" y="735" xlink:href="#a"/>
 </g>
</svg>
